<?xml version="1.0" encoding="utf-8"?>
<!-- Generator: Adobe Illustrator 13.0.2, SVG Export Plug-In . SVG Version: 6.00 Build 14948)  -->
<!DOCTYPE svg PUBLIC "-//W3C//DTD SVG 1.1//EN" "http://www.w3.org/Graphics/SVG/1.1/DTD/svg11.dtd">
<svg version="1.1" id="Layer_1" xmlns="http://www.w3.org/2000/svg" xmlns:xlink="http://www.w3.org/1999/xlink" x="0px" y="0px"
	 width="121.187px" height="91.974px" viewBox="0 0 121.187 91.974" enable-background="new 0 0 121.187 91.974"
	 xml:space="preserve">
<g>
	<g>
		<path fill-rule="evenodd" clip-rule="evenodd" d="M113.104,4c0.361,0,0.722,0,1.082,0c-7.723,25.459-18.049,48.314-26.509,73.037
			c-5.504-1.349-8.82-4.886-13.525-7.033c-6.904,2.113-12.07,5.963-18.395,8.656c-1.11-6.283-2.005-12.783-3.246-18.936
			c-7.02-4.883-14.468-9.336-21.641-14.066c2.459-3.023,6.514-3.789,9.738-5.41C63.516,28.732,89.297,16.002,112.563,4
			C112.744,4,112.925,4,113.104,4z M34.117,45.658c6.371,3.728,12.573,7.625,18.395,11.902c18.403-15.25,37.516-32.595,53.561-48.15
			C82.671,22.077,57.484,32.958,34.117,45.658z M87.678,36.461c-7.637,8.849-15.671,17.137-22.182,26.51
			c7.462,3.538,13.873,8.127,21.1,11.902c3.536-10.834,7.887-21.644,11.902-32.461c4.004-10.786,8.566-21.417,11.36-31.919
			C102.735,19.429,95.12,27.837,87.678,36.461z M54.135,59.725c1.7,4.25,1.165,10.737,3.246,14.607
			c3.296-10.403,9.342-17.011,15.689-24.346c10.351-11.962,21.892-24.479,30.297-34.625C86.777,29.97,70.297,44.689,54.135,59.725z
			 M59.545,74.873c3.541-2.591,8.361-3.902,11.902-6.492c-2.635-1.333-4.833-3.102-7.574-4.328
			C62.834,67.708,59.639,72.073,59.545,74.873z"/>
		<path fill-rule="evenodd" clip-rule="evenodd" d="M-7,74.332c0.541,0,1.082,0,1.623,0c2.376,4.478,6.634,7.072,8.115,12.443
			c-3.116-0.396-3.965-4.005-5.41-5.951C-4.121,78.873-6.9,77.218-7,74.332z"/>
		<path fill-rule="evenodd" clip-rule="evenodd" d="M47.102,86.234c-0.101,2.882-3.575,3.266-5.41,4.328
			c-1.878,1.087-3.828,3.305-6.492,3.246c0.101-2.882,3.575-3.266,5.41-4.328C42.487,88.393,44.438,86.176,47.102,86.234z"/>
		<path fill-rule="evenodd" clip-rule="evenodd" d="M10.312,90.021c0.361,0,0.722,0,1.082,0c2.17,0.402,4.275,1.772,6.492,2.705
			c1.928,0.811,5.415,0.258,5.41,3.246c-4.554-0.855-8.335-2.484-11.902-4.328C10.24,91.897,10.364,90.872,10.312,90.021z"/>
	</g>
</g>
</svg>
